<svg id="visual" viewBox="0 0 960 540" width="960" height="540" xmlns="http://www.w3.org/2000/svg" xmlns:xlink="http://www.w3.org/1999/xlink" version="1.1"><rect x="0" y="0" width="960" height="540" fill="#ffffff"></rect><defs><linearGradient id="grad1_0" x1="43.8%" y1="0%" x2="100%" y2="100%"><stop offset="14.444444444444446%" stop-color="#f4bb9f" stop-opacity="1"></stop><stop offset="85.55555555555554%" stop-color="#f4bb9f" stop-opacity="1"></stop></linearGradient></defs><defs><linearGradient id="grad1_1" x1="43.8%" y1="0%" x2="100%" y2="100%"><stop offset="14.444444444444446%" stop-color="#f4bb9f" stop-opacity="1"></stop><stop offset="85.55555555555554%" stop-color="#fcddce" stop-opacity="1"></stop></linearGradient></defs><defs><linearGradient id="grad1_2" x1="43.8%" y1="0%" x2="100%" y2="100%"><stop offset="14.444444444444446%" stop-color="#ffffff" stop-opacity="1"></stop><stop offset="85.55555555555554%" stop-color="#fcddce" stop-opacity="1"></stop></linearGradient></defs><defs><linearGradient id="grad2_0" x1="0%" y1="0%" x2="56.3%" y2="100%"><stop offset="14.444444444444446%" stop-color="#f4bb9f" stop-opacity="1"></stop><stop offset="85.55555555555554%" stop-color="#f4bb9f" stop-opacity="1"></stop></linearGradient></defs><defs><linearGradient id="grad2_1" x1="0%" y1="0%" x2="56.3%" y2="100%"><stop offset="14.444444444444446%" stop-color="#fcddce" stop-opacity="1"></stop><stop offset="85.55555555555554%" stop-color="#f4bb9f" stop-opacity="1"></stop></linearGradient></defs><defs><linearGradient id="grad2_2" x1="0%" y1="0%" x2="56.3%" y2="100%"><stop offset="14.444444444444446%" stop-color="#fcddce" stop-opacity="1"></stop><stop offset="85.55555555555554%" stop-color="#ffffff" stop-opacity="1"></stop></linearGradient></defs><g transform="translate(960, 0)"><path d="M0 243C-20.5 225.1 -41 207.1 -64.6 198.8C-88.1 190.4 -114.7 191.6 -129.9 178.8C-145.1 166 -148.9 139.1 -166.7 121.1C-184.4 103 -216.1 93.8 -231.1 75.1C-246.2 56.4 -244.6 28.2 -243 0L0 0Z" fill="#feeee6"></path><path d="M0 162C-13.7 150 -27.4 138.1 -43.1 132.5C-58.8 126.9 -76.5 127.7 -86.6 119.2C-96.7 110.6 -99.3 92.8 -111.1 80.7C-122.9 68.7 -144 62.5 -154.1 50.1C-164.1 37.6 -163.1 18.8 -162 0L0 0Z" fill="#f8ccb6"></path><path d="M0 81C-6.8 75 -13.7 69 -21.5 66.3C-29.4 63.5 -38.2 63.9 -43.3 59.6C-48.4 55.3 -49.6 46.4 -55.6 40.4C-61.5 34.3 -72 31.3 -77 25C-82.1 18.8 -81.5 9.4 -81 0L0 0Z" fill="#f4bb9f"></path></g><g transform="translate(0, 540)"><path d="M0 -243C21.8 -225.4 43.6 -207.7 63.7 -195.9C83.7 -184.1 102.1 -178 124 -170.7C146 -163.4 171.6 -154.7 190.9 -138.7C210.3 -122.7 223.5 -99.4 231.1 -75.1C238.8 -50.8 240.9 -25.4 243 0L0 0Z" fill="#feeee6"></path><path d="M0 -162C14.5 -150.2 29.1 -138.5 42.4 -130.6C55.8 -122.7 68 -118.7 82.7 -113.8C97.3 -108.9 114.4 -103.1 127.3 -92.5C140.2 -81.8 149 -66.3 154.1 -50.1C159.2 -33.8 160.6 -16.9 162 0L0 0Z" fill="#f8ccb6"></path><path d="M0 -81C7.3 -75.1 14.5 -69.2 21.2 -65.3C27.9 -61.4 34 -59.3 41.3 -56.9C48.7 -54.5 57.2 -51.6 63.6 -46.2C70.1 -40.9 74.5 -33.1 77 -25C79.6 -16.9 80.3 -8.5 81 0L0 0Z" fill="#f4bb9f"></path></g></svg>