<svg id="visual" viewBox="0 0 540 960" width="540" height="960" xmlns="http://www.w3.org/2000/svg" xmlns:xlink="http://www.w3.org/1999/xlink" version="1.1"><rect x="0" y="0" width="540" height="960" fill="#ffffff"></rect><defs><linearGradient id="grad1_0" x1="0%" y1="0%" x2="100%" y2="100%"><stop offset="30%" stop-color="#f4bb9f" stop-opacity="1"></stop><stop offset="70%" stop-color="#f4bb9f" stop-opacity="1"></stop></linearGradient></defs><defs><linearGradient id="grad1_1" x1="0%" y1="0%" x2="100%" y2="100%"><stop offset="30%" stop-color="#f4bb9f" stop-opacity="1"></stop><stop offset="70%" stop-color="#fcddce" stop-opacity="1"></stop></linearGradient></defs><defs><linearGradient id="grad1_2" x1="0%" y1="0%" x2="100%" y2="100%"><stop offset="30%" stop-color="#ffffff" stop-opacity="1"></stop><stop offset="70%" stop-color="#fcddce" stop-opacity="1"></stop></linearGradient></defs><defs><linearGradient id="grad2_0" x1="0%" y1="0%" x2="100%" y2="100%"><stop offset="30%" stop-color="#f4bb9f" stop-opacity="1"></stop><stop offset="70%" stop-color="#f4bb9f" stop-opacity="1"></stop></linearGradient></defs><defs><linearGradient id="grad2_1" x1="0%" y1="0%" x2="100%" y2="100%"><stop offset="30%" stop-color="#fcddce" stop-opacity="1"></stop><stop offset="70%" stop-color="#f4bb9f" stop-opacity="1"></stop></linearGradient></defs><defs><linearGradient id="grad2_2" x1="0%" y1="0%" x2="100%" y2="100%"><stop offset="30%" stop-color="#fcddce" stop-opacity="1"></stop><stop offset="70%" stop-color="#ffffff" stop-opacity="1"></stop></linearGradient></defs><g transform="translate(540, 0)"><path d="M0 216C-24.3 216.4 -48.6 216.8 -66.7 205.4C-84.9 194.1 -96.8 170.9 -113.4 156.1C-130 141.4 -151.3 134.9 -166.7 121.1C-182 107.2 -191.5 86 -198.8 64.6C-206 43.2 -211 21.6 -216 0L0 0Z" fill="#feeee6"></path><path d="M0 144C-16.2 144.3 -32.4 144.5 -44.5 137C-56.6 129.4 -64.6 113.9 -75.6 104.1C-86.7 94.2 -100.9 89.9 -111.1 80.7C-121.4 71.5 -127.7 57.3 -132.5 43.1C-137.3 28.8 -140.7 14.4 -144 0L0 0Z" fill="#f8ccb6"></path><path d="M0 72C-8.1 72.1 -16.2 72.3 -22.2 68.5C-28.3 64.7 -32.3 57 -37.8 52C-43.3 47.1 -50.4 45 -55.6 40.4C-60.7 35.7 -63.8 28.7 -66.3 21.5C-68.7 14.4 -70.3 7.2 -72 0L0 0Z" fill="#f4bb9f"></path></g><g transform="translate(0, 960)"><path d="M0 -216C21.5 -211.6 43.1 -207.1 65.5 -201.6C88 -196.1 111.3 -189.5 127 -174.7C142.6 -160 150.5 -137.1 162.6 -118.1C174.7 -99.2 191.1 -84.2 200.7 -65.2C210.3 -46.2 213.1 -23.1 216 0L0 0Z" fill="#feeee6"></path><path d="M0 -144C14.4 -141 28.7 -138.1 43.7 -134.4C58.6 -130.7 74.2 -126.3 84.6 -116.5C95.1 -106.7 100.3 -91.4 108.4 -78.8C116.5 -66.1 127.4 -56.2 133.8 -43.5C140.2 -30.8 142.1 -15.4 144 0L0 0Z" fill="#f8ccb6"></path><path d="M0 -72C7.2 -70.5 14.4 -69 21.8 -67.2C29.3 -65.4 37.1 -63.2 42.3 -58.2C47.5 -53.3 50.2 -45.7 54.2 -39.4C58.2 -33.1 63.7 -28.1 66.9 -21.7C70.1 -15.4 71 -7.7 72 0L0 0Z" fill="#f4bb9f"></path></g></svg>