<svg id="visual" viewBox="0 0 900 600" width="900" height="600" xmlns="http://www.w3.org/2000/svg" xmlns:xlink="http://www.w3.org/1999/xlink" version="1.1"><rect x="0" y="0" width="900" height="600" fill="#ffffff"></rect><defs><linearGradient id="grad1_0" x1="33.3%" y1="0%" x2="100%" y2="100%"><stop offset="20%" stop-color="#ffbaa4" stop-opacity="1"></stop><stop offset="80%" stop-color="#ffbaa4" stop-opacity="1"></stop></linearGradient></defs><defs><linearGradient id="grad1_1" x1="33.3%" y1="0%" x2="100%" y2="100%"><stop offset="20%" stop-color="#ffbaa4" stop-opacity="1"></stop><stop offset="80%" stop-color="#ffdcd1" stop-opacity="1"></stop></linearGradient></defs><defs><linearGradient id="grad1_2" x1="33.3%" y1="0%" x2="100%" y2="100%"><stop offset="20%" stop-color="#ffffff" stop-opacity="1"></stop><stop offset="80%" stop-color="#ffdcd1" stop-opacity="1"></stop></linearGradient></defs><defs><linearGradient id="grad2_0" x1="0%" y1="0%" x2="66.7%" y2="100%"><stop offset="20%" stop-color="#ffbaa4" stop-opacity="1"></stop><stop offset="80%" stop-color="#ffbaa4" stop-opacity="1"></stop></linearGradient></defs><defs><linearGradient id="grad2_1" x1="0%" y1="0%" x2="66.7%" y2="100%"><stop offset="20%" stop-color="#ffdcd1" stop-opacity="1"></stop><stop offset="80%" stop-color="#ffbaa4" stop-opacity="1"></stop></linearGradient></defs><defs><linearGradient id="grad2_2" x1="0%" y1="0%" x2="66.7%" y2="100%"><stop offset="20%" stop-color="#ffdcd1" stop-opacity="1"></stop><stop offset="80%" stop-color="#ffffff" stop-opacity="1"></stop></linearGradient></defs><g transform="translate(900, 0)"><path d="M0 243.4C-21 227.4 -42.1 211.5 -66.1 203.5C-90.2 195.6 -117.3 195.5 -131.7 181.2C-146 166.9 -147.6 138.3 -165 119.9C-182.5 101.6 -215.8 93.5 -231.5 75.2C-247.2 56.9 -245.3 28.5 -243.4 0L0 0Z" fill="#ffeee8"></path><path d="M0 162.2C-14 151.6 -28 141 -44.1 135.7C-60.1 130.4 -78.2 130.4 -87.8 120.8C-97.3 111.3 -98.4 92.2 -110 79.9C-121.7 67.7 -143.8 62.3 -154.3 50.1C-164.8 38 -163.5 19 -162.2 0L0 0Z" fill="#ffcbba"></path><path d="M0 81.1C-7 75.8 -14 70.5 -22 67.8C-30.1 65.2 -39.1 65.2 -43.9 60.4C-48.7 55.6 -49.2 46.1 -55 40C-60.8 33.9 -71.9 31.2 -77.2 25.1C-82.4 19 -81.8 9.5 -81.1 0L0 0Z" fill="#ffbaa4"></path></g><g transform="translate(0, 600)"><path d="M0 -243.4C20.3 -221.5 40.6 -199.6 62.1 -191.2C83.6 -182.7 106.4 -187.7 133.4 -183.6C160.4 -179.6 191.7 -166.6 196.9 -143.1C202.1 -119.5 181.1 -85.5 184.5 -59.9C187.9 -34.4 215.6 -17.2 243.4 0L0 0Z" fill="#ffeee8"></path><path d="M0 -162.2C13.5 -147.7 27.1 -133.1 41.4 -127.4C55.8 -121.8 70.9 -125.1 89 -122.4C107 -119.7 127.8 -111 131.3 -95.4C134.7 -79.7 120.7 -57 123 -40C125.3 -22.9 143.8 -11.5 162.2 0L0 0Z" fill="#ffcbba"></path><path d="M0 -81.1C6.8 -73.8 13.5 -66.5 20.7 -63.7C27.9 -60.9 35.5 -62.6 44.5 -61.2C53.5 -59.9 63.9 -55.5 65.6 -47.7C67.4 -39.8 60.4 -28.5 61.5 -20C62.6 -11.5 71.9 -5.7 81.1 0L0 0Z" fill="#ffbaa4"></path></g></svg>