<svg width="60" height="60" viewBox="0 0 60 60" fill="none" xmlns="http://www.w3.org/2000/svg">
<g clip-path="url(#clip0_21_4)">
<path d="M31.648 39.972C31.648 41.428 32.096 42.464 32.992 43.08C33.944 43.696 35.26 44.004 36.94 44.004C37.78 44.004 38.648 43.948 39.544 43.836C40.44 43.668 41.224 43.472 41.896 43.248C42.4 43.864 42.82 44.564 43.156 45.348C43.548 46.076 43.744 46.972 43.744 48.036C43.744 50.164 42.932 51.9 41.308 53.244C39.74 54.588 36.94 55.26 32.908 55.26C27.98 55.26 24.172 54.14 21.484 51.9C18.852 49.66 17.536 46.02 17.536 40.98V5.028C18.152 4.86 19.02 4.692 20.14 4.524C21.316 4.3 22.548 4.188 23.836 4.188C26.3 4.188 28.204 4.636 29.548 5.532C30.948 6.372 31.648 8.192 31.648 10.992V16.368H42.652C42.988 16.984 43.296 17.768 43.576 18.72C43.912 19.616 44.08 20.624 44.08 21.744C44.08 23.704 43.632 25.132 42.736 26.028C41.896 26.868 40.748 27.288 39.292 27.288H31.648V39.972Z" fill="#A33434"/>
</g>
<defs>
<clipPath id="clip0_21_4">
<rect width="60" height="60" fill="white"/>
</clipPath>
</defs>
</svg>
